/* XPM */
static char * clyde_xpm[] = {
/* columns rows colors chars-per-pixel */
"96 96 7 1 ",
"  c red",
". c #FFB851",
"X c #2121FF",
"o c cyan",
"O c #FFB8FF",
"+ c #DEDEFF",
"@ c white",
/* pixels */
"@@@@@@@@@@@@@@@@@@@@@@@@@@@@@@@@@@@@@@@@@@@@@@@@@@@@@@@@@@@@@@@@@@@@@@@@@@@@@@@@@@@@@@@@@@@@@@@@",
"@@@@@@@@@@@@@@@@@@@@@@@@@@@@@@@@@@@@@@@@@@@@@@@@@@@@@@@@@@@@@@@@@@@@@@@@@@@@@@@@@@@@@@@@@@@@@@@@",
"@@@@@@@@@@@@@@@@@@@@@@@@@@@@@@@@@@@@@@@@@@@@@@@@@@@@@@@@@@@@@@@@@@@@@@@@@@@@@@@@@@@@@@@@@@@@@@@@",
"@@@@@@@@@@@@@@@@@@@@@@@@@@@@@@@@@@@@@@@@@@@@@@@@@@@@@@@@@@@@@@@@@@@@@@@@@@@@@@@@@@@@@@@@@@@@@@@@",
"@@@@@@@@@@@@@@@@@@@@@@@@@@@@@@@@@@@@@@@@@@@@@@@@@@@@@@@@@@@@@@@@@@@@@@@@@@@@@@@@@@@@@@@@@@@@@@@@",
"@@@@@@@@@@@@@@@@@@@@@@@@@@@@@@@@@@@@@@@@@@@@@@@@@@@@@@@@@@@@@@@@@@@@@@@@@@@@@@@@@@@@@@@@@@@@@@@@",
"@@@@@@@@@@@@@@@@@@@@@@@@@@@@@@@@@@@@oooooooooooooooooooooooo@@@@@@@@@@@@@@@@@@@@@@@@@@@@@@@@@@@@",
"@@@@@@@@@@@@@@@@@@@@@@@@@@@@@@@@@@@@oooooooooooooooooooooooo@@@@@@@@@@@@@@@@@@@@@@@@@@@@@@@@@@@@",
"@@@@@@@@@@@@@@@@@@@@@@@@@@@@@@@@@@@@oooooooooooooooooooooooo@@@@@@@@@@@@@@@@@@@@@@@@@@@@@@@@@@@@",
"@@@@@@@@@@@@@@@@@@@@@@@@@@@@@@@@@@@@oooooooooooooooooooooooo@@@@@@@@@@@@@@@@@@@@@@@@@@@@@@@@@@@@",
"@@@@@@@@@@@@@@@@@@@@@@@@@@@@@@@@@@@@oooooooooooooooooooooooo@@@@@@@@@@@@@@@@@@@@@@@@@@@@@@@@@@@@",
"@@@@@@@@@@@@@@@@@@@@@@@@@@@@@@@@@@@@oooooooooooooooooooooooo@@@@@@@@@@@@@@@@@@@@@@@@@@@@@@@@@@@@",
"@@@@@@@@@@@@@@@@@@@@@@@@oooooooooooooooooooooooooooooooooooooooooooooooo@@@@@@@@@@@@@@@@@@@@@@@@",
"@@@@@@@@@@@@@@@@@@@@@@@@oooooooooooooooooooooooooooooooooooooooooooooooo@@@@@@@@@@@@@@@@@@@@@@@@",
"@@@@@@@@@@@@@@@@@@@@@@@@oooooooooooooooooooooooooooooooooooooooooooooooo@@@@@@@@@@@@@@@@@@@@@@@@",
"@@@@@@@@@@@@@@@@@@@@@@@@oooooooooooooooooooooooooooooooooooooooooooooooo@@@@@@@@@@@@@@@@@@@@@@@@",
"@@@@@@@@@@@@@@@@@@@@@@@@oooooooooooooooooooooooooooooooooooooooooooooooo@@@@@@@@@@@@@@@@@@@@@@@@",
"@@@@@@@@@@@@@@@@@@@@@@@@oooooooooooooooooooooooooooooooooooooooooooooooo@@@@@@@@@@@@@@@@@@@@@@@@",
"@@@@@@@@@@@@@@@@@@oooooooooooooooooooooooooooooooooooooooooooooooooooooooooooo@@@@@@@@@@@@@@@@@@",
"@@@@@@@@@@@@@@@@@@oooooooooooooooooooooooooooooooooooooooooooooooooooooooooooo@@@@@@@@@@@@@@@@@@",
"@@@@@@@@@@@@@@@@@@oooooooooooooooooooooooooooooooooooooooooooooooooooooooooooo@@@@@@@@@@@@@@@@@@",
"@@@@@@@@@@@@@@@@@@oooooooooooooooooooooooooooooooooooooooooooooooooooooooooooo@@@@@@@@@@@@@@@@@@",
"@@@@@@@@@@@@@@@@@@oooooooooooooooooooooooooooooooooooooooooooooooooooooooooooo@@@@@@@@@@@@@@@@@@",
"@@@@@@@@@@@@@@@@@@oooooooooooooooooooooooooooooooooooooooooooooooooooooooooooo@@@@@@@@@@@@@@@@@@",
"@@@@@@@@@@@@oooooo++++++++++++oooooooooooooooooooooooo++++++++++++oooooooooooooooooo@@@@@@@@@@@@",
"@@@@@@@@@@@@oooooo++++++++++++oooooooooooooooooooooooo++++++++++++oooooooooooooooooo@@@@@@@@@@@@",
"@@@@@@@@@@@@oooooo++++++++++++oooooooooooooooooooooooo++++++++++++oooooooooooooooooo@@@@@@@@@@@@",
"@@@@@@@@@@@@oooooo++++++++++++oooooooooooooooooooooooo++++++++++++oooooooooooooooooo@@@@@@@@@@@@",
"@@@@@@@@@@@@oooooo++++++++++++oooooooooooooooooooooooo++++++++++++oooooooooooooooooo@@@@@@@@@@@@",
"@@@@@@@@@@@@oooooo++++++++++++oooooooooooooooooooooooo++++++++++++oooooooooooooooooo@@@@@@@@@@@@",
"@@@@@@@@@@@@++++++++++++++++++++++++oooooooooooo++++++++++++++++++++++++oooooooooooo@@@@@@@@@@@@",
"@@@@@@@@@@@@++++++++++++++++++++++++oooooooooooo++++++++++++++++++++++++oooooooooooo@@@@@@@@@@@@",
"@@@@@@@@@@@@++++++++++++++++++++++++oooooooooooo++++++++++++++++++++++++oooooooooooo@@@@@@@@@@@@",
"@@@@@@@@@@@@++++++++++++++++++++++++oooooooooooo++++++++++++++++++++++++oooooooooooo@@@@@@@@@@@@",
"@@@@@@@@@@@@++++++++++++++++++++++++oooooooooooo++++++++++++++++++++++++oooooooooooo@@@@@@@@@@@@",
"@@@@@@@@@@@@++++++++++++++++++++++++oooooooooooo++++++++++++++++++++++++oooooooooooo@@@@@@@@@@@@",
"@@@@@@@@@@@@XXXXXXXXXXXX++++++++++++ooooooooooooXXXXXXXXXXXX++++++++++++oooooooooooo@@@@@@@@@@@@",
"@@@@@@@@@@@@XXXXXXXXXXXX++++++++++++ooooooooooooXXXXXXXXXXXX++++++++++++oooooooooooo@@@@@@@@@@@@",
"@@@@@@@@@@@@XXXXXXXXXXXX++++++++++++ooooooooooooXXXXXXXXXXXX++++++++++++oooooooooooo@@@@@@@@@@@@",
"@@@@@@@@@@@@XXXXXXXXXXXX++++++++++++ooooooooooooXXXXXXXXXXXX++++++++++++oooooooooooo@@@@@@@@@@@@",
"@@@@@@@@@@@@XXXXXXXXXXXX++++++++++++ooooooooooooXXXXXXXXXXXX++++++++++++oooooooooooo@@@@@@@@@@@@",
"@@@@@@@@@@@@XXXXXXXXXXXX++++++++++++ooooooooooooXXXXXXXXXXXX++++++++++++oooooooooooo@@@@@@@@@@@@",
"@@@@@@ooooooXXXXXXXXXXXX++++++++++++ooooooooooooXXXXXXXXXXXX++++++++++++oooooooooooooooooo@@@@@@",
"@@@@@@ooooooXXXXXXXXXXXX++++++++++++ooooooooooooXXXXXXXXXXXX++++++++++++oooooooooooooooooo@@@@@@",
"@@@@@@ooooooXXXXXXXXXXXX++++++++++++ooooooooooooXXXXXXXXXXXX++++++++++++oooooooooooooooooo@@@@@@",
"@@@@@@ooooooXXXXXXXXXXXX++++++++++++ooooooooooooXXXXXXXXXXXX++++++++++++oooooooooooooooooo@@@@@@",
"@@@@@@ooooooXXXXXXXXXXXX++++++++++++ooooooooooooXXXXXXXXXXXX++++++++++++oooooooooooooooooo@@@@@@",
"@@@@@@ooooooXXXXXXXXXXXX++++++++++++ooooooooooooXXXXXXXXXXXX++++++++++++oooooooooooooooooo@@@@@@",
"@@@@@@oooooooooooo++++++++++++oooooooooooooooooooooooo++++++++++++oooooooooooooooooooooooo@@@@@@",
"@@@@@@oooooooooooo++++++++++++oooooooooooooooooooooooo++++++++++++oooooooooooooooooooooooo@@@@@@",
"@@@@@@oooooooooooo++++++++++++oooooooooooooooooooooooo++++++++++++oooooooooooooooooooooooo@@@@@@",
"@@@@@@oooooooooooo++++++++++++oooooooooooooooooooooooo++++++++++++oooooooooooooooooooooooo@@@@@@",
"@@@@@@oooooooooooo++++++++++++oooooooooooooooooooooooo++++++++++++oooooooooooooooooooooooo@@@@@@",
"@@@@@@oooooooooooo++++++++++++oooooooooooooooooooooooo++++++++++++oooooooooooooooooooooooo@@@@@@",
"@@@@@@oooooooooooooooooooooooooooooooooooooooooooooooooooooooooooooooooooooooooooooooooooo@@@@@@",
"@@@@@@oooooooooooooooooooooooooooooooooooooooooooooooooooooooooooooooooooooooooooooooooooo@@@@@@",
"@@@@@@oooooooooooooooooooooooooooooooooooooooooooooooooooooooooooooooooooooooooooooooooooo@@@@@@",
"@@@@@@oooooooooooooooooooooooooooooooooooooooooooooooooooooooooooooooooooooooooooooooooooo@@@@@@",
"@@@@@@oooooooooooooooooooooooooooooooooooooooooooooooooooooooooooooooooooooooooooooooooooo@@@@@@",
"@@@@@@oooooooooooooooooooooooooooooooooooooooooooooooooooooooooooooooooooooooooooooooooooo@@@@@@",
"@@@@@@oooooooooooooooooooooooooooooooooooooooooooooooooooooooooooooooooooooooooooooooooooo@@@@@@",
"@@@@@@oooooooooooooooooooooooooooooooooooooooooooooooooooooooooooooooooooooooooooooooooooo@@@@@@",
"@@@@@@oooooooooooooooooooooooooooooooooooooooooooooooooooooooooooooooooooooooooooooooooooo@@@@@@",
"@@@@@@oooooooooooooooooooooooooooooooooooooooooooooooooooooooooooooooooooooooooooooooooooo@@@@@@",
"@@@@@@oooooooooooooooooooooooooooooooooooooooooooooooooooooooooooooooooooooooooooooooooooo@@@@@@",
"@@@@@@oooooooooooooooooooooooooooooooooooooooooooooooooooooooooooooooooooooooooooooooooooo@@@@@@",
"@@@@@@oooooooooooooooooooooooooooooooooooooooooooooooooooooooooooooooooooooooooooooooooooo@@@@@@",
"@@@@@@oooooooooooooooooooooooooooooooooooooooooooooooooooooooooooooooooooooooooooooooooooo@@@@@@",
"@@@@@@oooooooooooooooooooooooooooooooooooooooooooooooooooooooooooooooooooooooooooooooooooo@@@@@@",
"@@@@@@oooooooooooooooooooooooooooooooooooooooooooooooooooooooooooooooooooooooooooooooooooo@@@@@@",
"@@@@@@oooooooooooooooooooooooooooooooooooooooooooooooooooooooooooooooooooooooooooooooooooo@@@@@@",
"@@@@@@oooooooooooooooooooooooooooooooooooooooooooooooooooooooooooooooooooooooooooooooooooo@@@@@@",
"@@@@@@oooooooooooooooooooooooooooooooooooooooooooooooooooooooooooooooooooooooooooooooooooo@@@@@@",
"@@@@@@oooooooooooooooooooooooooooooooooooooooooooooooooooooooooooooooooooooooooooooooooooo@@@@@@",
"@@@@@@oooooooooooooooooooooooooooooooooooooooooooooooooooooooooooooooooooooooooooooooooooo@@@@@@",
"@@@@@@oooooooooooooooooooooooooooooooooooooooooooooooooooooooooooooooooooooooooooooooooooo@@@@@@",
"@@@@@@oooooooooooooooooooooooooooooooooooooooooooooooooooooooooooooooooooooooooooooooooooo@@@@@@",
"@@@@@@oooooooooooooooooooooooooooooooooooooooooooooooooooooooooooooooooooooooooooooooooooo@@@@@@",
"@@@@@@oooooooooooo@@@@@@oooooooooooooooooo@@@@@@@@@@@@oooooooooooooooooo@@@@@@oooooooooooo@@@@@@",
"@@@@@@oooooooooooo@@@@@@oooooooooooooooooo@@@@@@@@@@@@oooooooooooooooooo@@@@@@oooooooooooo@@@@@@",
"@@@@@@oooooooooooo@@@@@@oooooooooooooooooo@@@@@@@@@@@@oooooooooooooooooo@@@@@@oooooooooooo@@@@@@",
"@@@@@@oooooooooooo@@@@@@oooooooooooooooooo@@@@@@@@@@@@oooooooooooooooooo@@@@@@oooooooooooo@@@@@@",
"@@@@@@oooooooooooo@@@@@@oooooooooooooooooo@@@@@@@@@@@@oooooooooooooooooo@@@@@@oooooooooooo@@@@@@",
"@@@@@@oooooooooooo@@@@@@oooooooooooooooooo@@@@@@@@@@@@oooooooooooooooooo@@@@@@oooooooooooo@@@@@@",
"@@@@@@oooooo@@@@@@@@@@@@@@@@@@oooooooooooo@@@@@@@@@@@@oooooooooooo@@@@@@@@@@@@@@@@@@oooooo@@@@@@",
"@@@@@@oooooo@@@@@@@@@@@@@@@@@@oooooooooooo@@@@@@@@@@@@oooooooooooo@@@@@@@@@@@@@@@@@@oooooo@@@@@@",
"@@@@@@oooooo@@@@@@@@@@@@@@@@@@oooooooooooo@@@@@@@@@@@@oooooooooooo@@@@@@@@@@@@@@@@@@oooooo@@@@@@",
"@@@@@@oooooo@@@@@@@@@@@@@@@@@@oooooooooooo@@@@@@@@@@@@oooooooooooo@@@@@@@@@@@@@@@@@@oooooo@@@@@@",
"@@@@@@oooooo@@@@@@@@@@@@@@@@@@oooooooooooo@@@@@@@@@@@@oooooooooooo@@@@@@@@@@@@@@@@@@oooooo@@@@@@",
"@@@@@@oooooo@@@@@@@@@@@@@@@@@@oooooooooooo@@@@@@@@@@@@oooooooooooo@@@@@@@@@@@@@@@@@@oooooo@@@@@@",
"@@@@@@@@@@@@@@@@@@@@@@@@@@@@@@@@@@@@@@@@@@@@@@@@@@@@@@@@@@@@@@@@@@@@@@@@@@@@@@@@@@@@@@@@@@@@@@@@",
"@@@@@@@@@@@@@@@@@@@@@@@@@@@@@@@@@@@@@@@@@@@@@@@@@@@@@@@@@@@@@@@@@@@@@@@@@@@@@@@@@@@@@@@@@@@@@@@@",
"@@@@@@@@@@@@@@@@@@@@@@@@@@@@@@@@@@@@@@@@@@@@@@@@@@@@@@@@@@@@@@@@@@@@@@@@@@@@@@@@@@@@@@@@@@@@@@@@",
"@@@@@@@@@@@@@@@@@@@@@@@@@@@@@@@@@@@@@@@@@@@@@@@@@@@@@@@@@@@@@@@@@@@@@@@@@@@@@@@@@@@@@@@@@@@@@@@@",
"@@@@@@@@@@@@@@@@@@@@@@@@@@@@@@@@@@@@@@@@@@@@@@@@@@@@@@@@@@@@@@@@@@@@@@@@@@@@@@@@@@@@@@@@@@@@@@@@",
"@@@@@@@@@@@@@@@@@@@@@@@@@@@@@@@@@@@@@@@@@@@@@@@@@@@@@@@@@@@@@@@@@@@@@@@@@@@@@@@@@@@@@@@@@@@@@@@@"
};
