/* XPM */
static char * inky_xpm[] = {
/* columns rows colors chars-per-pixel */
"96 96 7 1 ",
"  c red",
". c #FFB851",
"X c #2121FF",
"o c cyan",
"O c #FFB8FF",
"+ c #DEDEFF",
"@ c white",
/* pixels */
"@@@@@@@@@@@@@@@@@@@@@@@@@@@@@@@@@@@@@@@@@@@@@@@@@@@@@@@@@@@@@@@@@@@@@@@@@@@@@@@@@@@@@@@@@@@@@@@@",
"@@@@@@@@@@@@@@@@@@@@@@@@@@@@@@@@@@@@@@@@@@@@@@@@@@@@@@@@@@@@@@@@@@@@@@@@@@@@@@@@@@@@@@@@@@@@@@@@",
"@@@@@@@@@@@@@@@@@@@@@@@@@@@@@@@@@@@@@@@@@@@@@@@@@@@@@@@@@@@@@@@@@@@@@@@@@@@@@@@@@@@@@@@@@@@@@@@@",
"@@@@@@@@@@@@@@@@@@@@@@@@@@@@@@@@@@@@@@@@@@@@@@@@@@@@@@@@@@@@@@@@@@@@@@@@@@@@@@@@@@@@@@@@@@@@@@@@",
"@@@@@@@@@@@@@@@@@@@@@@@@@@@@@@@@@@@@@@@@@@@@@@@@@@@@@@@@@@@@@@@@@@@@@@@@@@@@@@@@@@@@@@@@@@@@@@@@",
"@@@@@@@@@@@@@@@@@@@@@@@@@@@@@@@@@@@@@@@@@@@@@@@@@@@@@@@@@@@@@@@@@@@@@@@@@@@@@@@@@@@@@@@@@@@@@@@@",
"@@@@@@@@@@@@@@@@@@@@@@@@@@@@@@@@@@@@........................@@@@@@@@@@@@@@@@@@@@@@@@@@@@@@@@@@@@",
"@@@@@@@@@@@@@@@@@@@@@@@@@@@@@@@@@@@@........................@@@@@@@@@@@@@@@@@@@@@@@@@@@@@@@@@@@@",
"@@@@@@@@@@@@@@@@@@@@@@@@@@@@@@@@@@@@........................@@@@@@@@@@@@@@@@@@@@@@@@@@@@@@@@@@@@",
"@@@@@@@@@@@@@@@@@@@@@@@@@@@@@@@@@@@@........................@@@@@@@@@@@@@@@@@@@@@@@@@@@@@@@@@@@@",
"@@@@@@@@@@@@@@@@@@@@@@@@@@@@@@@@@@@@........................@@@@@@@@@@@@@@@@@@@@@@@@@@@@@@@@@@@@",
"@@@@@@@@@@@@@@@@@@@@@@@@@@@@@@@@@@@@........................@@@@@@@@@@@@@@@@@@@@@@@@@@@@@@@@@@@@",
"@@@@@@@@@@@@@@@@@@@@@@@@XXXXXXXXXXXX........................XXXXXXXXXXXX@@@@@@@@@@@@@@@@@@@@@@@@",
"@@@@@@@@@@@@@@@@@@@@@@@@XXXXXXXXXXXX........................XXXXXXXXXXXX@@@@@@@@@@@@@@@@@@@@@@@@",
"@@@@@@@@@@@@@@@@@@@@@@@@XXXXXXXXXXXX........................XXXXXXXXXXXX@@@@@@@@@@@@@@@@@@@@@@@@",
"@@@@@@@@@@@@@@@@@@@@@@@@XXXXXXXXXXXX........................XXXXXXXXXXXX@@@@@@@@@@@@@@@@@@@@@@@@",
"@@@@@@@@@@@@@@@@@@@@@@@@XXXXXXXXXXXX........................XXXXXXXXXXXX@@@@@@@@@@@@@@@@@@@@@@@@",
"@@@@@@@@@@@@@@@@@@@@@@@@XXXXXXXXXXXX........................XXXXXXXXXXXX@@@@@@@@@@@@@@@@@@@@@@@@",
"@@@@@@@@@@@@@@@@@@++++++XXXXXXXXXXXX++++++............++++++XXXXXXXXXXXX++++++@@@@@@@@@@@@@@@@@@",
"@@@@@@@@@@@@@@@@@@++++++XXXXXXXXXXXX++++++............++++++XXXXXXXXXXXX++++++@@@@@@@@@@@@@@@@@@",
"@@@@@@@@@@@@@@@@@@++++++XXXXXXXXXXXX++++++............++++++XXXXXXXXXXXX++++++@@@@@@@@@@@@@@@@@@",
"@@@@@@@@@@@@@@@@@@++++++XXXXXXXXXXXX++++++............++++++XXXXXXXXXXXX++++++@@@@@@@@@@@@@@@@@@",
"@@@@@@@@@@@@@@@@@@++++++XXXXXXXXXXXX++++++............++++++XXXXXXXXXXXX++++++@@@@@@@@@@@@@@@@@@",
"@@@@@@@@@@@@@@@@@@++++++XXXXXXXXXXXX++++++............++++++XXXXXXXXXXXX++++++@@@@@@@@@@@@@@@@@@",
"@@@@@@@@@@@@......++++++++++++++++++++++++............++++++++++++++++++++++++......@@@@@@@@@@@@",
"@@@@@@@@@@@@......++++++++++++++++++++++++............++++++++++++++++++++++++......@@@@@@@@@@@@",
"@@@@@@@@@@@@......++++++++++++++++++++++++............++++++++++++++++++++++++......@@@@@@@@@@@@",
"@@@@@@@@@@@@......++++++++++++++++++++++++............++++++++++++++++++++++++......@@@@@@@@@@@@",
"@@@@@@@@@@@@......++++++++++++++++++++++++............++++++++++++++++++++++++......@@@@@@@@@@@@",
"@@@@@@@@@@@@......++++++++++++++++++++++++............++++++++++++++++++++++++......@@@@@@@@@@@@",
"@@@@@@@@@@@@......++++++++++++++++++++++++............++++++++++++++++++++++++......@@@@@@@@@@@@",
"@@@@@@@@@@@@......++++++++++++++++++++++++............++++++++++++++++++++++++......@@@@@@@@@@@@",
"@@@@@@@@@@@@......++++++++++++++++++++++++............++++++++++++++++++++++++......@@@@@@@@@@@@",
"@@@@@@@@@@@@......++++++++++++++++++++++++............++++++++++++++++++++++++......@@@@@@@@@@@@",
"@@@@@@@@@@@@......++++++++++++++++++++++++............++++++++++++++++++++++++......@@@@@@@@@@@@",
"@@@@@@@@@@@@......++++++++++++++++++++++++............++++++++++++++++++++++++......@@@@@@@@@@@@",
"@@@@@@@@@@@@............++++++++++++........................++++++++++++............@@@@@@@@@@@@",
"@@@@@@@@@@@@............++++++++++++........................++++++++++++............@@@@@@@@@@@@",
"@@@@@@@@@@@@............++++++++++++........................++++++++++++............@@@@@@@@@@@@",
"@@@@@@@@@@@@............++++++++++++........................++++++++++++............@@@@@@@@@@@@",
"@@@@@@@@@@@@............++++++++++++........................++++++++++++............@@@@@@@@@@@@",
"@@@@@@@@@@@@............++++++++++++........................++++++++++++............@@@@@@@@@@@@",
"@@@@@@....................................................................................@@@@@@",
"@@@@@@....................................................................................@@@@@@",
"@@@@@@....................................................................................@@@@@@",
"@@@@@@....................................................................................@@@@@@",
"@@@@@@....................................................................................@@@@@@",
"@@@@@@....................................................................................@@@@@@",
"@@@@@@....................................................................................@@@@@@",
"@@@@@@....................................................................................@@@@@@",
"@@@@@@....................................................................................@@@@@@",
"@@@@@@....................................................................................@@@@@@",
"@@@@@@....................................................................................@@@@@@",
"@@@@@@....................................................................................@@@@@@",
"@@@@@@....................................................................................@@@@@@",
"@@@@@@....................................................................................@@@@@@",
"@@@@@@....................................................................................@@@@@@",
"@@@@@@....................................................................................@@@@@@",
"@@@@@@....................................................................................@@@@@@",
"@@@@@@....................................................................................@@@@@@",
"@@@@@@....................................................................................@@@@@@",
"@@@@@@....................................................................................@@@@@@",
"@@@@@@....................................................................................@@@@@@",
"@@@@@@....................................................................................@@@@@@",
"@@@@@@....................................................................................@@@@@@",
"@@@@@@....................................................................................@@@@@@",
"@@@@@@....................................................................................@@@@@@",
"@@@@@@....................................................................................@@@@@@",
"@@@@@@....................................................................................@@@@@@",
"@@@@@@....................................................................................@@@@@@",
"@@@@@@....................................................................................@@@@@@",
"@@@@@@....................................................................................@@@@@@",
"@@@@@@....................................................................................@@@@@@",
"@@@@@@....................................................................................@@@@@@",
"@@@@@@....................................................................................@@@@@@",
"@@@@@@....................................................................................@@@@@@",
"@@@@@@....................................................................................@@@@@@",
"@@@@@@....................................................................................@@@@@@",
"@@@@@@........................@@@@@@........................@@@@@@........................@@@@@@",
"@@@@@@........................@@@@@@........................@@@@@@........................@@@@@@",
"@@@@@@........................@@@@@@........................@@@@@@........................@@@@@@",
"@@@@@@........................@@@@@@........................@@@@@@........................@@@@@@",
"@@@@@@........................@@@@@@........................@@@@@@........................@@@@@@",
"@@@@@@........................@@@@@@........................@@@@@@........................@@@@@@",
"@@@@@@@@@@@@............@@@@@@@@@@@@@@@@@@............@@@@@@@@@@@@@@@@@@............@@@@@@@@@@@@",
"@@@@@@@@@@@@............@@@@@@@@@@@@@@@@@@............@@@@@@@@@@@@@@@@@@............@@@@@@@@@@@@",
"@@@@@@@@@@@@............@@@@@@@@@@@@@@@@@@............@@@@@@@@@@@@@@@@@@............@@@@@@@@@@@@",
"@@@@@@@@@@@@............@@@@@@@@@@@@@@@@@@............@@@@@@@@@@@@@@@@@@............@@@@@@@@@@@@",
"@@@@@@@@@@@@............@@@@@@@@@@@@@@@@@@............@@@@@@@@@@@@@@@@@@............@@@@@@@@@@@@",
"@@@@@@@@@@@@............@@@@@@@@@@@@@@@@@@............@@@@@@@@@@@@@@@@@@............@@@@@@@@@@@@",
"@@@@@@@@@@@@@@@@@@@@@@@@@@@@@@@@@@@@@@@@@@@@@@@@@@@@@@@@@@@@@@@@@@@@@@@@@@@@@@@@@@@@@@@@@@@@@@@@",
"@@@@@@@@@@@@@@@@@@@@@@@@@@@@@@@@@@@@@@@@@@@@@@@@@@@@@@@@@@@@@@@@@@@@@@@@@@@@@@@@@@@@@@@@@@@@@@@@",
"@@@@@@@@@@@@@@@@@@@@@@@@@@@@@@@@@@@@@@@@@@@@@@@@@@@@@@@@@@@@@@@@@@@@@@@@@@@@@@@@@@@@@@@@@@@@@@@@",
"@@@@@@@@@@@@@@@@@@@@@@@@@@@@@@@@@@@@@@@@@@@@@@@@@@@@@@@@@@@@@@@@@@@@@@@@@@@@@@@@@@@@@@@@@@@@@@@@",
"@@@@@@@@@@@@@@@@@@@@@@@@@@@@@@@@@@@@@@@@@@@@@@@@@@@@@@@@@@@@@@@@@@@@@@@@@@@@@@@@@@@@@@@@@@@@@@@@",
"@@@@@@@@@@@@@@@@@@@@@@@@@@@@@@@@@@@@@@@@@@@@@@@@@@@@@@@@@@@@@@@@@@@@@@@@@@@@@@@@@@@@@@@@@@@@@@@@"
};
