/* XPM */
static char * pinky_xpm[] = {
/* columns rows colors chars-per-pixel */
"96 96 7 1 ",
"  c red",
". c #FFB851",
"X c #2121FF",
"o c cyan",
"O c #FFB8FF",
"+ c #DEDEFF",
"@ c white",
/* pixels */
"@@@@@@@@@@@@@@@@@@@@@@@@@@@@@@@@@@@@@@@@@@@@@@@@@@@@@@@@@@@@@@@@@@@@@@@@@@@@@@@@@@@@@@@@@@@@@@@@",
"@@@@@@@@@@@@@@@@@@@@@@@@@@@@@@@@@@@@@@@@@@@@@@@@@@@@@@@@@@@@@@@@@@@@@@@@@@@@@@@@@@@@@@@@@@@@@@@@",
"@@@@@@@@@@@@@@@@@@@@@@@@@@@@@@@@@@@@@@@@@@@@@@@@@@@@@@@@@@@@@@@@@@@@@@@@@@@@@@@@@@@@@@@@@@@@@@@@",
"@@@@@@@@@@@@@@@@@@@@@@@@@@@@@@@@@@@@@@@@@@@@@@@@@@@@@@@@@@@@@@@@@@@@@@@@@@@@@@@@@@@@@@@@@@@@@@@@",
"@@@@@@@@@@@@@@@@@@@@@@@@@@@@@@@@@@@@@@@@@@@@@@@@@@@@@@@@@@@@@@@@@@@@@@@@@@@@@@@@@@@@@@@@@@@@@@@@",
"@@@@@@@@@@@@@@@@@@@@@@@@@@@@@@@@@@@@@@@@@@@@@@@@@@@@@@@@@@@@@@@@@@@@@@@@@@@@@@@@@@@@@@@@@@@@@@@@",
"@@@@@@@@@@@@@@@@@@@@@@@@@@@@@@@@@@@@OOOOOOOOOOOOOOOOOOOOOOOO@@@@@@@@@@@@@@@@@@@@@@@@@@@@@@@@@@@@",
"@@@@@@@@@@@@@@@@@@@@@@@@@@@@@@@@@@@@OOOOOOOOOOOOOOOOOOOOOOOO@@@@@@@@@@@@@@@@@@@@@@@@@@@@@@@@@@@@",
"@@@@@@@@@@@@@@@@@@@@@@@@@@@@@@@@@@@@OOOOOOOOOOOOOOOOOOOOOOOO@@@@@@@@@@@@@@@@@@@@@@@@@@@@@@@@@@@@",
"@@@@@@@@@@@@@@@@@@@@@@@@@@@@@@@@@@@@OOOOOOOOOOOOOOOOOOOOOOOO@@@@@@@@@@@@@@@@@@@@@@@@@@@@@@@@@@@@",
"@@@@@@@@@@@@@@@@@@@@@@@@@@@@@@@@@@@@OOOOOOOOOOOOOOOOOOOOOOOO@@@@@@@@@@@@@@@@@@@@@@@@@@@@@@@@@@@@",
"@@@@@@@@@@@@@@@@@@@@@@@@@@@@@@@@@@@@OOOOOOOOOOOOOOOOOOOOOOOO@@@@@@@@@@@@@@@@@@@@@@@@@@@@@@@@@@@@",
"@@@@@@@@@@@@@@@@@@@@@@@@OOOOOOOOOOOOOOOOOOOOOOOOOOOOOOOOOOOOOOOOOOOOOOOO@@@@@@@@@@@@@@@@@@@@@@@@",
"@@@@@@@@@@@@@@@@@@@@@@@@OOOOOOOOOOOOOOOOOOOOOOOOOOOOOOOOOOOOOOOOOOOOOOOO@@@@@@@@@@@@@@@@@@@@@@@@",
"@@@@@@@@@@@@@@@@@@@@@@@@OOOOOOOOOOOOOOOOOOOOOOOOOOOOOOOOOOOOOOOOOOOOOOOO@@@@@@@@@@@@@@@@@@@@@@@@",
"@@@@@@@@@@@@@@@@@@@@@@@@OOOOOOOOOOOOOOOOOOOOOOOOOOOOOOOOOOOOOOOOOOOOOOOO@@@@@@@@@@@@@@@@@@@@@@@@",
"@@@@@@@@@@@@@@@@@@@@@@@@OOOOOOOOOOOOOOOOOOOOOOOOOOOOOOOOOOOOOOOOOOOOOOOO@@@@@@@@@@@@@@@@@@@@@@@@",
"@@@@@@@@@@@@@@@@@@@@@@@@OOOOOOOOOOOOOOOOOOOOOOOOOOOOOOOOOOOOOOOOOOOOOOOO@@@@@@@@@@@@@@@@@@@@@@@@",
"@@@@@@@@@@@@@@@@@@OOOOOOOOOOOOOOOOOOOOOOOOOOOOOOOOOOOOOOOOOOOOOOOOOOOOOOOOOOOO@@@@@@@@@@@@@@@@@@",
"@@@@@@@@@@@@@@@@@@OOOOOOOOOOOOOOOOOOOOOOOOOOOOOOOOOOOOOOOOOOOOOOOOOOOOOOOOOOOO@@@@@@@@@@@@@@@@@@",
"@@@@@@@@@@@@@@@@@@OOOOOOOOOOOOOOOOOOOOOOOOOOOOOOOOOOOOOOOOOOOOOOOOOOOOOOOOOOOO@@@@@@@@@@@@@@@@@@",
"@@@@@@@@@@@@@@@@@@OOOOOOOOOOOOOOOOOOOOOOOOOOOOOOOOOOOOOOOOOOOOOOOOOOOOOOOOOOOO@@@@@@@@@@@@@@@@@@",
"@@@@@@@@@@@@@@@@@@OOOOOOOOOOOOOOOOOOOOOOOOOOOOOOOOOOOOOOOOOOOOOOOOOOOOOOOOOOOO@@@@@@@@@@@@@@@@@@",
"@@@@@@@@@@@@@@@@@@OOOOOOOOOOOOOOOOOOOOOOOOOOOOOOOOOOOOOOOOOOOOOOOOOOOOOOOOOOOO@@@@@@@@@@@@@@@@@@",
"@@@@@@@@@@@@OOOOOOOOOOOOOOOOOOOOOOOOOOOOOOOOOOOOOOOOOOOOOOOOOOOOOOOOOOOOOOOOOOOOOOOO@@@@@@@@@@@@",
"@@@@@@@@@@@@OOOOOOOOOOOOOOOOOOOOOOOOOOOOOOOOOOOOOOOOOOOOOOOOOOOOOOOOOOOOOOOOOOOOOOOO@@@@@@@@@@@@",
"@@@@@@@@@@@@OOOOOOOOOOOOOOOOOOOOOOOOOOOOOOOOOOOOOOOOOOOOOOOOOOOOOOOOOOOOOOOOOOOOOOOO@@@@@@@@@@@@",
"@@@@@@@@@@@@OOOOOOOOOOOOOOOOOOOOOOOOOOOOOOOOOOOOOOOOOOOOOOOOOOOOOOOOOOOOOOOOOOOOOOOO@@@@@@@@@@@@",
"@@@@@@@@@@@@OOOOOOOOOOOOOOOOOOOOOOOOOOOOOOOOOOOOOOOOOOOOOOOOOOOOOOOOOOOOOOOOOOOOOOOO@@@@@@@@@@@@",
"@@@@@@@@@@@@OOOOOOOOOOOOOOOOOOOOOOOOOOOOOOOOOOOOOOOOOOOOOOOOOOOOOOOOOOOOOOOOOOOOOOOO@@@@@@@@@@@@",
"@@@@@@@@@@@@OOOOOOOOOOOO++++++++++++OOOOOOOOOOOOOOOOOOOOOOOO++++++++++++OOOOOOOOOOOO@@@@@@@@@@@@",
"@@@@@@@@@@@@OOOOOOOOOOOO++++++++++++OOOOOOOOOOOOOOOOOOOOOOOO++++++++++++OOOOOOOOOOOO@@@@@@@@@@@@",
"@@@@@@@@@@@@OOOOOOOOOOOO++++++++++++OOOOOOOOOOOOOOOOOOOOOOOO++++++++++++OOOOOOOOOOOO@@@@@@@@@@@@",
"@@@@@@@@@@@@OOOOOOOOOOOO++++++++++++OOOOOOOOOOOOOOOOOOOOOOOO++++++++++++OOOOOOOOOOOO@@@@@@@@@@@@",
"@@@@@@@@@@@@OOOOOOOOOOOO++++++++++++OOOOOOOOOOOOOOOOOOOOOOOO++++++++++++OOOOOOOOOOOO@@@@@@@@@@@@",
"@@@@@@@@@@@@OOOOOOOOOOOO++++++++++++OOOOOOOOOOOOOOOOOOOOOOOO++++++++++++OOOOOOOOOOOO@@@@@@@@@@@@",
"@@@@@@@@@@@@OOOOOO++++++++++++++++++++++++OOOOOOOOOOOO++++++++++++++++++++++++OOOOOO@@@@@@@@@@@@",
"@@@@@@@@@@@@OOOOOO++++++++++++++++++++++++OOOOOOOOOOOO++++++++++++++++++++++++OOOOOO@@@@@@@@@@@@",
"@@@@@@@@@@@@OOOOOO++++++++++++++++++++++++OOOOOOOOOOOO++++++++++++++++++++++++OOOOOO@@@@@@@@@@@@",
"@@@@@@@@@@@@OOOOOO++++++++++++++++++++++++OOOOOOOOOOOO++++++++++++++++++++++++OOOOOO@@@@@@@@@@@@",
"@@@@@@@@@@@@OOOOOO++++++++++++++++++++++++OOOOOOOOOOOO++++++++++++++++++++++++OOOOOO@@@@@@@@@@@@",
"@@@@@@@@@@@@OOOOOO++++++++++++++++++++++++OOOOOOOOOOOO++++++++++++++++++++++++OOOOOO@@@@@@@@@@@@",
"@@@@@@OOOOOOOOOOOO++++++++++++++++++++++++OOOOOOOOOOOO++++++++++++++++++++++++OOOOOOOOOOOO@@@@@@",
"@@@@@@OOOOOOOOOOOO++++++++++++++++++++++++OOOOOOOOOOOO++++++++++++++++++++++++OOOOOOOOOOOO@@@@@@",
"@@@@@@OOOOOOOOOOOO++++++++++++++++++++++++OOOOOOOOOOOO++++++++++++++++++++++++OOOOOOOOOOOO@@@@@@",
"@@@@@@OOOOOOOOOOOO++++++++++++++++++++++++OOOOOOOOOOOO++++++++++++++++++++++++OOOOOOOOOOOO@@@@@@",
"@@@@@@OOOOOOOOOOOO++++++++++++++++++++++++OOOOOOOOOOOO++++++++++++++++++++++++OOOOOOOOOOOO@@@@@@",
"@@@@@@OOOOOOOOOOOO++++++++++++++++++++++++OOOOOOOOOOOO++++++++++++++++++++++++OOOOOOOOOOOO@@@@@@",
"@@@@@@OOOOOOOOOOOO++++++XXXXXXXXXXXX++++++OOOOOOOOOOOO++++++XXXXXXXXXXXX++++++OOOOOOOOOOOO@@@@@@",
"@@@@@@OOOOOOOOOOOO++++++XXXXXXXXXXXX++++++OOOOOOOOOOOO++++++XXXXXXXXXXXX++++++OOOOOOOOOOOO@@@@@@",
"@@@@@@OOOOOOOOOOOO++++++XXXXXXXXXXXX++++++OOOOOOOOOOOO++++++XXXXXXXXXXXX++++++OOOOOOOOOOOO@@@@@@",
"@@@@@@OOOOOOOOOOOO++++++XXXXXXXXXXXX++++++OOOOOOOOOOOO++++++XXXXXXXXXXXX++++++OOOOOOOOOOOO@@@@@@",
"@@@@@@OOOOOOOOOOOO++++++XXXXXXXXXXXX++++++OOOOOOOOOOOO++++++XXXXXXXXXXXX++++++OOOOOOOOOOOO@@@@@@",
"@@@@@@OOOOOOOOOOOO++++++XXXXXXXXXXXX++++++OOOOOOOOOOOO++++++XXXXXXXXXXXX++++++OOOOOOOOOOOO@@@@@@",
"@@@@@@OOOOOOOOOOOOOOOOOOXXXXXXXXXXXXOOOOOOOOOOOOOOOOOOOOOOOOXXXXXXXXXXXXOOOOOOOOOOOOOOOOOO@@@@@@",
"@@@@@@OOOOOOOOOOOOOOOOOOXXXXXXXXXXXXOOOOOOOOOOOOOOOOOOOOOOOOXXXXXXXXXXXXOOOOOOOOOOOOOOOOOO@@@@@@",
"@@@@@@OOOOOOOOOOOOOOOOOOXXXXXXXXXXXXOOOOOOOOOOOOOOOOOOOOOOOOXXXXXXXXXXXXOOOOOOOOOOOOOOOOOO@@@@@@",
"@@@@@@OOOOOOOOOOOOOOOOOOXXXXXXXXXXXXOOOOOOOOOOOOOOOOOOOOOOOOXXXXXXXXXXXXOOOOOOOOOOOOOOOOOO@@@@@@",
"@@@@@@OOOOOOOOOOOOOOOOOOXXXXXXXXXXXXOOOOOOOOOOOOOOOOOOOOOOOOXXXXXXXXXXXXOOOOOOOOOOOOOOOOOO@@@@@@",
"@@@@@@OOOOOOOOOOOOOOOOOOXXXXXXXXXXXXOOOOOOOOOOOOOOOOOOOOOOOOXXXXXXXXXXXXOOOOOOOOOOOOOOOOOO@@@@@@",
"@@@@@@OOOOOOOOOOOOOOOOOOOOOOOOOOOOOOOOOOOOOOOOOOOOOOOOOOOOOOOOOOOOOOOOOOOOOOOOOOOOOOOOOOOO@@@@@@",
"@@@@@@OOOOOOOOOOOOOOOOOOOOOOOOOOOOOOOOOOOOOOOOOOOOOOOOOOOOOOOOOOOOOOOOOOOOOOOOOOOOOOOOOOOO@@@@@@",
"@@@@@@OOOOOOOOOOOOOOOOOOOOOOOOOOOOOOOOOOOOOOOOOOOOOOOOOOOOOOOOOOOOOOOOOOOOOOOOOOOOOOOOOOOO@@@@@@",
"@@@@@@OOOOOOOOOOOOOOOOOOOOOOOOOOOOOOOOOOOOOOOOOOOOOOOOOOOOOOOOOOOOOOOOOOOOOOOOOOOOOOOOOOOO@@@@@@",
"@@@@@@OOOOOOOOOOOOOOOOOOOOOOOOOOOOOOOOOOOOOOOOOOOOOOOOOOOOOOOOOOOOOOOOOOOOOOOOOOOOOOOOOOOO@@@@@@",
"@@@@@@OOOOOOOOOOOOOOOOOOOOOOOOOOOOOOOOOOOOOOOOOOOOOOOOOOOOOOOOOOOOOOOOOOOOOOOOOOOOOOOOOOOO@@@@@@",
"@@@@@@OOOOOOOOOOOOOOOOOOOOOOOOOOOOOOOOOOOOOOOOOOOOOOOOOOOOOOOOOOOOOOOOOOOOOOOOOOOOOOOOOOOO@@@@@@",
"@@@@@@OOOOOOOOOOOOOOOOOOOOOOOOOOOOOOOOOOOOOOOOOOOOOOOOOOOOOOOOOOOOOOOOOOOOOOOOOOOOOOOOOOOO@@@@@@",
"@@@@@@OOOOOOOOOOOOOOOOOOOOOOOOOOOOOOOOOOOOOOOOOOOOOOOOOOOOOOOOOOOOOOOOOOOOOOOOOOOOOOOOOOOO@@@@@@",
"@@@@@@OOOOOOOOOOOOOOOOOOOOOOOOOOOOOOOOOOOOOOOOOOOOOOOOOOOOOOOOOOOOOOOOOOOOOOOOOOOOOOOOOOOO@@@@@@",
"@@@@@@OOOOOOOOOOOOOOOOOOOOOOOOOOOOOOOOOOOOOOOOOOOOOOOOOOOOOOOOOOOOOOOOOOOOOOOOOOOOOOOOOOOO@@@@@@",
"@@@@@@OOOOOOOOOOOOOOOOOOOOOOOOOOOOOOOOOOOOOOOOOOOOOOOOOOOOOOOOOOOOOOOOOOOOOOOOOOOOOOOOOOOO@@@@@@",
"@@@@@@OOOOOOOOOOOOOOOOOOOOOOOOOOOOOOOOOOOOOOOOOOOOOOOOOOOOOOOOOOOOOOOOOOOOOOOOOOOOOOOOOOOO@@@@@@",
"@@@@@@OOOOOOOOOOOOOOOOOOOOOOOOOOOOOOOOOOOOOOOOOOOOOOOOOOOOOOOOOOOOOOOOOOOOOOOOOOOOOOOOOOOO@@@@@@",
"@@@@@@OOOOOOOOOOOOOOOOOOOOOOOOOOOOOOOOOOOOOOOOOOOOOOOOOOOOOOOOOOOOOOOOOOOOOOOOOOOOOOOOOOOO@@@@@@",
"@@@@@@OOOOOOOOOOOOOOOOOOOOOOOOOOOOOOOOOOOOOOOOOOOOOOOOOOOOOOOOOOOOOOOOOOOOOOOOOOOOOOOOOOOO@@@@@@",
"@@@@@@OOOOOOOOOOOOOOOOOOOOOOOOOOOOOOOOOOOOOOOOOOOOOOOOOOOOOOOOOOOOOOOOOOOOOOOOOOOOOOOOOOOO@@@@@@",
"@@@@@@OOOOOOOOOOOOOOOOOOOOOOOOOOOOOOOOOOOOOOOOOOOOOOOOOOOOOOOOOOOOOOOOOOOOOOOOOOOOOOOOOOOO@@@@@@",
"@@@@@@OOOOOOOOOOOOOOOOOOOOOOOO@@@@@@OOOOOOOOOOOOOOOOOOOOOOOO@@@@@@OOOOOOOOOOOOOOOOOOOOOOOO@@@@@@",
"@@@@@@OOOOOOOOOOOOOOOOOOOOOOOO@@@@@@OOOOOOOOOOOOOOOOOOOOOOOO@@@@@@OOOOOOOOOOOOOOOOOOOOOOOO@@@@@@",
"@@@@@@OOOOOOOOOOOOOOOOOOOOOOOO@@@@@@OOOOOOOOOOOOOOOOOOOOOOOO@@@@@@OOOOOOOOOOOOOOOOOOOOOOOO@@@@@@",
"@@@@@@OOOOOOOOOOOOOOOOOOOOOOOO@@@@@@OOOOOOOOOOOOOOOOOOOOOOOO@@@@@@OOOOOOOOOOOOOOOOOOOOOOOO@@@@@@",
"@@@@@@OOOOOOOOOOOOOOOOOOOOOOOO@@@@@@OOOOOOOOOOOOOOOOOOOOOOOO@@@@@@OOOOOOOOOOOOOOOOOOOOOOOO@@@@@@",
"@@@@@@OOOOOOOOOOOOOOOOOOOOOOOO@@@@@@OOOOOOOOOOOOOOOOOOOOOOOO@@@@@@OOOOOOOOOOOOOOOOOOOOOOOO@@@@@@",
"@@@@@@@@@@@@OOOOOOOOOOOO@@@@@@@@@@@@@@@@@@OOOOOOOOOOOO@@@@@@@@@@@@@@@@@@OOOOOOOOOOOO@@@@@@@@@@@@",
"@@@@@@@@@@@@OOOOOOOOOOOO@@@@@@@@@@@@@@@@@@OOOOOOOOOOOO@@@@@@@@@@@@@@@@@@OOOOOOOOOOOO@@@@@@@@@@@@",
"@@@@@@@@@@@@OOOOOOOOOOOO@@@@@@@@@@@@@@@@@@OOOOOOOOOOOO@@@@@@@@@@@@@@@@@@OOOOOOOOOOOO@@@@@@@@@@@@",
"@@@@@@@@@@@@OOOOOOOOOOOO@@@@@@@@@@@@@@@@@@OOOOOOOOOOOO@@@@@@@@@@@@@@@@@@OOOOOOOOOOOO@@@@@@@@@@@@",
"@@@@@@@@@@@@OOOOOOOOOOOO@@@@@@@@@@@@@@@@@@OOOOOOOOOOOO@@@@@@@@@@@@@@@@@@OOOOOOOOOOOO@@@@@@@@@@@@",
"@@@@@@@@@@@@OOOOOOOOOOOO@@@@@@@@@@@@@@@@@@OOOOOOOOOOOO@@@@@@@@@@@@@@@@@@OOOOOOOOOOOO@@@@@@@@@@@@",
"@@@@@@@@@@@@@@@@@@@@@@@@@@@@@@@@@@@@@@@@@@@@@@@@@@@@@@@@@@@@@@@@@@@@@@@@@@@@@@@@@@@@@@@@@@@@@@@@",
"@@@@@@@@@@@@@@@@@@@@@@@@@@@@@@@@@@@@@@@@@@@@@@@@@@@@@@@@@@@@@@@@@@@@@@@@@@@@@@@@@@@@@@@@@@@@@@@@",
"@@@@@@@@@@@@@@@@@@@@@@@@@@@@@@@@@@@@@@@@@@@@@@@@@@@@@@@@@@@@@@@@@@@@@@@@@@@@@@@@@@@@@@@@@@@@@@@@",
"@@@@@@@@@@@@@@@@@@@@@@@@@@@@@@@@@@@@@@@@@@@@@@@@@@@@@@@@@@@@@@@@@@@@@@@@@@@@@@@@@@@@@@@@@@@@@@@@",
"@@@@@@@@@@@@@@@@@@@@@@@@@@@@@@@@@@@@@@@@@@@@@@@@@@@@@@@@@@@@@@@@@@@@@@@@@@@@@@@@@@@@@@@@@@@@@@@@",
"@@@@@@@@@@@@@@@@@@@@@@@@@@@@@@@@@@@@@@@@@@@@@@@@@@@@@@@@@@@@@@@@@@@@@@@@@@@@@@@@@@@@@@@@@@@@@@@@"
};
